<?xml version="1.0" encoding="UTF-8"?>
<svg id="Layer_2" data-name="Layer 2" xmlns="http://www.w3.org/2000/svg" viewBox="0 0 302.17 260.52">
  <defs>
    <style>
      .cls-1 {
        stroke-width: 0px;
      }
    </style>
  </defs>
  <g id="Layer_3" data-name="Layer 3">
    <g>
      <path class="cls-1" d="m193.79,68.24l-37.43-27.09c-.29-.21-.36-.64-.13-.92,6.06-7.28,18.83-6.06,20.45-5.87.12.01.24,0,.34-.06,3.87-1.86.61-3.28.61-3.28-10.1.74-17.29-1.77-22.42-5.73-.28-.22-.33-.64-.1-.91,2.78-3.24,8.04-6.59,10-7.79.37-.23.4-.75.06-1.03l-7.89-6.4c-.38-.31-.97-.08-1.03.41-.69,6.12-3.18,9.34-5.01,10.92-.28.24-.7.2-.92-.09-5.3-6.81-7.02-15.19-7.57-19.85-.08-.69-1.04-.76-1.23-.1-2.61,8.83-5.64,15.28-8.65,19.99-.22.35-.72.39-1,.08-1.34-1.53-3-4.52-4.87-10.18-.16-.5-.83-.59-1.12-.15-1.26,1.9-3.96,5.71-6.24,7.07-.45.27-.44.92.04,1.13,2.51,1.13,7.53,3.57,9.69,5.98.21.23.2.59,0,.83-6.59,7.76-12.29,8.05-12.29,8.05-8.02.38-9.44,1.78-9.52,2.65-.04.39.32.69.71.65,8.07-.97,18.06,3.98,20.96,5.54.4.22.45.77.09,1.05l-35,27.98c-.28.22-.32.64-.08.91l9.81,11.34c.26.3.73.29.98-.02l27.1-34.31c.44-.56,1.33-.08,1.1.6l-10.14,29.53c-.1.3.03.63.31.77l6.75,3.42c.36.18.8-.01.9-.4l7.2-27.23c.18-.66,1.13-.61,1.24.06l4.93,30.99c.05.32.26.58.56.71l1.27-.09c-1.55-5.55.92-24.9,1.82-32.32.08-.67,1.01-.76,1.23-.12l8.91,26.14c.14.41.63.56.98.3l5.4-4c.23-.17.32-.48.21-.75l-11.37-28.26c-.26-.66.58-1.19,1.06-.66l29.78,32.84c.27.29.73.27.97-.04l8.66-11.41c.21-.28.15-.69-.13-.9Zm-50.63-24.3c-1.93-3.06-6.65-9.81-11.48-11.14-.48-.13-.61-.76-.24-1.09,2.39-2.13,8.3-7.95,10.23-15.08.15-.56.9-.65,1.17-.13,1.81,3.55,6.5,11.97,11.48,14.46.45.23.44.88-.02,1.12-2.67,1.39-8.64,5.15-9.99,11.63-.12.57-.84.72-1.15.23Z"/>
      <path class="cls-1" d="m194.48,80.19l74.59,125.43c.07.11.05.26-.05.35l-14.13,13.8c-.09.09-.22.11-.33.05l-20.13-10.56c-.1-.05-.22-.04-.31.03l-17.48,13.86c-.1.08-.23.08-.33.01l-20.53-13.86c-.11-.07-.25-.06-.34.02l-20.07,17.17c-.1.09-.25.09-.36,0l-25.15-19.19c-.11-.08-.25-.08-.35,0l-25.16,20.85c-.11.09-.26.09-.36,0l-20.43-17.14c-.11-.09-.28-.09-.38.01l-18.75,18.42c-.11.11-.29.11-.4,0l-17.07-17.73c-.11-.11-.28-.12-.39-.02l-20.06,17.76c-.12.1-.3.09-.4-.02l-17.13-19.43c-.08-.1-.09-.24-.02-.34L121.64,68.1c.17-.26.58-.09.51.22l-3.33,15.42c-.03.13.03.25.15.31l11.17,5.8c.15.08.33,0,.39-.15l5.95-15.07c.11-.28.52-.22.55.08l1.87,18.37c.02.15.15.27.31.25l11.87-.96c.15-.01.27-.14.26-.3l-.91-18.57c-.02-.32.42-.42.55-.12l5.96,14.41c.07.16.26.22.41.13l11.93-7.2c.12-.07.17-.22.12-.35l-6.1-14.64c-.12-.28.24-.53.46-.31l21.68,20.72c.1.09.25.11.36.02l8.28-6.05c.14-.1.33-.06.41.08Z"/>
      <polygon class="cls-1" points="78 249.86 83.83 241.36 89 249.86 78 249.86"/>
      <polygon class="cls-1" points="120.33 248.36 125.5 241.36 131.67 248.36 120.33 248.36"/>
      <polygon class="cls-1" points="170.17 246.86 176.5 238.69 183.5 246.86 170.17 246.86"/>
      <polygon class="cls-1" points="209.83 245.61 215.67 236.69 223.33 245.61 209.83 245.61"/>
      <g>
        <polygon class="cls-1" points="59.21 235.69 72.45 235.69 64.94 227.16 59.21 235.69"/>
        <polygon class="cls-1" points="143.37 229.52 154.75 229.52 148.41 223.75 143.37 229.52"/>
        <polygon class="cls-1" points="190.71 231.69 199.46 231.69 195.08 225.18 190.71 231.69"/>
        <polygon class="cls-1" points="99.35 234.24 109.74 234.47 104.06 227.22 99.35 234.24"/>
        <path class="cls-1" d="m302.17,249.86l-32-41.83c-7.33,5.17-22.67,34.75-22.67,34.75l34.5-1.42-12-16.83-7.67,11.17h5.93l.57-5.17,6.17,9-16.5.17c-3.17-.83-1-4-1-4l13.17-17.67,17.33,26.17-47.33.67,10.17-17.63-16.67-13.87-18.5,17.75-20.4-15.75-19.76,19.12-26.25-19.12-24.75,21.17-21.17-17.27-19.17,17.27-19.83-17.27-15.5,15.22,10.38,13.88c3.71,3.67,0,4.33,0,4.33l-43.88,1.67c-3.33.33-1.83-3.67-1.83-3.67l14.17-22.78c1.17-2.45,3,0,3,0l11,13.45c2.67,4,.67,5.5.67,5.5h-16.17c-.15-3.22,5.17-8.17,5.17-8.17,0,8.17,6.5,5.33,6.5,5.33l-7.33-9.75c-1.83-1.25-3,0-3,0l-8,15.58c28.5,1.17,33.83-1.5,33.83-1.5l-25.67-31.5L0,260.52l66-2.33v-7.67l7.83-.67,7.67-9.5c2.67-2,4.17-.33,4.17-.33l6.5,9.83,24.67-1.5,9.17-10.67,10.17,10.67,31.17-1.5,7.17-10.17c1.17-1.33,3.5-.17,3.5-.17l8,10.33,21.17-1.25,8.17-12.75,11.17,12.75h7.5l-.17,7.42,68.33-3.17Zm-226.59-12.75c-.16.36-.52.59-.91.59h-17.33c-.37,0-.71-.2-.88-.53-.17-.33-.15-.72.05-1.03l7.5-11.17c.17-.26.46-.42.76-.44.32-.02.61.1.82.34l9.83,11.17c.26.29.32.71.16,1.07Zm37.15-1.13c-.17.34-.52.55-.89.55h-.02l-14.33-.33c-.37,0-.7-.22-.86-.54-.17-.32-.15-.71.06-1.02l6.5-9.67c.18-.27.47-.43.79-.44.32-.04.63.13.82.38l7.83,10c.24.3.28.72.11,1.06Zm45.54-5.09c-.15.38-.52.64-.93.64h-16.17c-.39,0-.75-.23-.91-.59-.16-.36-.1-.78.16-1.07l7.16-8.2c.18-.2.43-.33.7-.34.27,0,.53.08.73.26l9,8.2c.31.28.41.71.26,1.1Zm43.95,2.28c-.17.33-.51.53-.88.53h-12.5c-.37,0-.71-.2-.88-.53-.17-.33-.15-.72.05-1.03l6.25-9.3c.37-.55,1.29-.55,1.66,0l6.25,9.3c.21.31.23.7.05,1.03Zm26.45-2.64c-.37,0-.71-.2-.88-.53-.17-.33-.15-.72.05-1.03l6.25-9.3c.37-.55,1.29-.55,1.66,0l6.25,9.3c.21.31.23.7.05,1.03-.17.33-.51.53-.88.53h-12.5Z"/>
        <polygon class="cls-1" points="230.54 228.52 239.29 228.52 234.92 222.02 230.54 228.52"/>
      </g>
    </g>
  </g>
</svg>