<?xml version="1.0" encoding="UTF-8"?>
<svg id="Layer_2" data-name="Layer 2" xmlns="http://www.w3.org/2000/svg" viewBox="0 0 344.09 251.06">
  <defs>
    <style>
      .cls-1 {
        stroke-width: 0px;
      }
    </style>
  </defs>
  <g id="Layer_3" data-name="Layer 3">
    <g>
      <path class="cls-1" d="m137.43,50.29c-.41-.06-.41-.66,0-.7,9.59-.91,40.08-4.46,42.14-12.97,2.44-10.11-4-15-5.56-19.56s-4.33-11.76,9.96-16.54c.03,0,.05-.01.08-.02.84-.09,14.91-1.61,16.86,1.16.15.22-.03.51-.29.52-9.36.35-17.83,4.39-18.05,8.32-.69,3.09-.38,6.44-.2,7.81.04.27.35.4.57.22,2.22-1.84,11.86-9.11,22.19-5.7,0,0,3.44.63,1.34,5.41-.1.23-.4.28-.57.1-1.4-1.43-6.87-5.9-13.74,2.78-.18.23-.01.58.28.57,2.99-.07,13.68.34,8.86,9.83-.12.24-.45.26-.6.05-1.46-2.09-7.63-9.83-12.87.09-.02.04-.03.07-.04.11-.2,1.27-4.55,25.29-50.36,18.51Z"/>
      <g>
        <path class="cls-1" d="m145.72,23.74c-2.81.13-11.67,1.28-6.95,10.57.14.27.51.31.69.08,1.81-2.23,9.51-10.71,14.78-.67,1.05,1.82-1.04,4.51,6.55,8.46.1.05.21.06.32.04,1.38-.37,2.72-.77,3.99-1.2.38-.13.37-.67-.01-.8-3.27-1.08-2.75-.73-3.34-3.17-2.44-10.11.91-13.44,2.46-18s4.33-11.76-9.95-16.54c-.03-.01-.06-.02-.09-.02-.88-.1-14.33-1.54-16.72.99-.24.26-.06.68.3.7,9.3.39,17.69,4.4,17.91,8.31.67,3,.4,6.24.22,7.68-.04.33-.42.49-.68.28-2.38-1.95-11.85-8.95-22.01-5.65-.06.02-.11.05-.16.09-.38.36-2.06,2.26-.27,6.46.13.3.53.36.72.1,1.34-1.83,5.93-6.7,12.55,1.61.21.26.03.66-.3.68Z"/>
        <path class="cls-1" d="m176.36,49.76c6.11,1.27,12.73.62,23.52-.77.42-.05.4-.67-.02-.69-4.4-.19-11.46-.72-18.81-2.25-.09-.02-.18,0-.25.05-1.18.78-2.95,2.17-4.52,3.03-.28.15-.22.57.09.64Z"/>
      </g>
      <path class="cls-1" d="m259.43,40.25l-5.49-2.68c-.28-.14-.62-.08-.83.15-1.3,1.49-9.98,3.72-12.62,4.36-.31.08-.64-.05-.79-.33-.52-.98-2.75-3-4.15-4.22-.45-.39-.25-1.11.33-1.24,4.08-.87,9.32-3.16,11.58-4.19.5-.23.57-.91.12-1.23l-3.79-2.75c-.3-.21-.71-.18-.95.1-6.56,7.63-44.51,7.31-51.75,7.18-.54,0-.9.56-.65,1.04l3.22,6.31c.14.27.44.43.75.38,25.08-3.67,30.33-.14,31.4,1.79.26.46-.09,1.01-.62,1.04-6.49.38-23.46,12.57-23.46,12.57-1.33,1.33,0,2.17,0,2.17l4.99,2.31c.25.12.55.07.77-.11,19.77-16.61,24.08-9.2,24.08-9.2,4.7,6.32-18.02,19.57-19.28,20.3-.04.02-.07.05-.11.08-4.81,4.43-8.95,2.12-8.95,2.12l-19.82-9.03c-.43-.2-.56-.74-.26-1.11l4.83-5.87c.23-.28.22-.69-.04-.96l-4.14-4.26c-.39-.4-1.07-.23-1.2.31-.58,2.36-2.77,5-3.95,6.29-.35.38-.98.27-1.19-.21l-4.41-10.4c-.14-.32-.48-.5-.82-.42l-3.64.84c-.23.05-.42.22-.51.44l-4.39,11.24c-.23.6-1.08.61-1.33.02l-3.19-7.48c-.21-.49-.87-.59-1.21-.18l-3.23,3.85c-.21.25-.22.6-.04.87l5.29,7.64c.22.32.14.77-.17,1-16.83,12.17-27.09,8.75-27.09,8.75-28.95-6.67-25.23-18.3-24.32-20.35.09-.2.26-.35.46-.41,9.45-2.76,19.95,7.35,22.12,9.58.24.25.62.28.91.09l5.45-3.65c.42-.28.42-.91,0-1.19-2.38-1.61-8.98-5.95-11.95-6.9-2.95-.94-10.82-3.91-13.76-5.03-.51-.19-.62-.86-.21-1.22l4.43-3.75c.13-.11.29-.17.46-.17l26.97-.16c.27,0,.51-.15.63-.39l2.86-5.58c.26-.51-.16-1.1-.73-1.04-38.19,4.45-49.4-1.16-52.27-3.44-.32-.25-.77-.19-1.01.14-.68.93-2.56,2-3.94,2.71-.57.29-.5,1.12.11,1.32l14,4.53c.55.18.67.9.22,1.25l-5.27,4.09c-.2.15-.47.19-.7.1l-12.48-4.9c-.2-.08-.42-.06-.61.04l-5.52,3.01c-.56.31-.47,1.14.14,1.32l17.66,5.19c.3.09.51.37.51.69,0,14.15,11.16,20.38,14.44,21.91.44.2.54.77.22,1.13l-.54.59c-.26.28-.25.71.02.99l16.87,17.19c.27.28.71.29,1,.03l13.27-12.16c.14-.13.33-.2.52-.19,11.51.47,15.75,4.49,16.86,5.86.21.26.21.62,0,.88l-5.25,6.85c-.24.31-.18.75.12,1l3.82,3.06c.34.27.83.18,1.06-.18l4.5-7.22c.27-.44.9-.45,1.2-.03l8.11,11.67c.33.47,1.05.39,1.26-.15l5.5-13.96c.21-.54.95-.62,1.27-.13l5.7,8.69c.27.4.85.44,1.15.06l3.48-4.25c.23-.28.21-.69-.04-.95l-6.29-6.59c-.19-.2-.27-.5-.15-.75,1.18-2.43,11.04-4.64,15.28-5.32.18-.03.35,0,.5.11,3.36,2.27,10.02,8.3,11.92,10.04.29.26.73.24,1-.04l15.84-16.78c.28-.29.26-.76-.05-1.03l-1.57-1.38c-.36-.31-.31-.87.09-1.14,5.6-3.74,9.7-9.82,9.7-9.82,3.77-4.61,3.45-11.79,3.24-14-.03-.36.2-.68.56-.76,2.78-.59,13.53-3.78,17.78-5.05.63-.19.69-1.04.1-1.33Zm-80.81,45.1l-5.15,12.35c-.23.55-.99.6-1.29.08l-7.14-12.64c-.09-.16-.24-.28-.41-.33l-13.91-4.25c-.61-.19-.69-1.01-.13-1.32l15.38-8.37c.17-.09.29-.25.35-.43l3.99-13.96c.18-.65,1.08-.71,1.35-.09l6.61,15.19c.09.2.26.35.46.4l18.19,5.13c.67.19.7,1.13.05,1.37l-17.93,6.47c-.19.07-.34.21-.42.4Z"/>
      <path class="cls-1" d="m215.02,94.06s43.11-47.92,52.44-48.02l6.44,4.4-17.44,12.95,12.33.89,12.33-9.33,6.22,3.89-12,10.44,8.72,4.28,12-9.67,4.92,4.5-8.33,8.17,4.42,2.33,8.33-7.17,5.08,3.33-5.14,6.67,12.89,8s-7.44,13.33-6.67,20,.44,19.33,3.33,42.22c0,0,2.25,19.61-3.33,25.53s-13.58,13.92-13.58,13.92c0,0,12.58-1.92,18.5-6.17,0,0,5.25-4.5,6.5-4.08s7.75,3.5-14.75,15.75c0,0-5.33,2.33-4,4.67s1.89,5.16,9.75-.58l6.58-.75-4.17,7.89h-10.44s-12.39,15.28-19.56,14.44c0,0-34.61-5.89-42.22,3.67,0,0,10.56-2.17,11.56.67,2.67-.94,14.89-4.33,18.44,0,2.72,5.56-6.94,9.61-6.94,9.61,0,0,1.64-5.67.78-6.39s-10.28-2.47-11.72,6.11c-3.22.28-1.44-10.67-17.33-4.67l-2.89-.08s5.75-23.17,51.67-15.17c0,0,2.72-.36,1.94-3.69s4.78-3.56,4.78-3.56c0,0,4.33-5.78-7.56-1,0,0-3.78-.11-.44-2.33,0,0,11.11-2.44,5-4.33l-10.67-1.78s-1.96-2.72,1-6.11c0,0,13.78-10.22,25.11-26.67,0,0,4.44-15.78-3.56-49.33,0,0-4.44-16.47-2.67-19.36,0,0,2.22-13.31-8.89-13.53,0,0-21.05-9.92-51.56-9.33l-10.67,9.56s-4.22,3.78.22,4.67l19.78-.22s.67-4.44-6.89-5.78l-8.44,4.67,6.67-8.67s4.22-.89,7.78,1.33c0,0,6.3,1.56,11.15,12l-44.82,1.22Z"/>
      <path class="cls-1" d="m269.35,82.72l24.67,9.44,2,22.22,5.89,11.67s-8.22-9.89-10-14.33-7.78-19.44-14.44-21.11-8.11-7.89-8.11-7.89Z"/>
      <path class="cls-1" d="m288.24,121.61s7.44,5.89,8.67,10.33,5,16,5,16l-9.89-13.17-3.78-13.17Z"/>
      <path class="cls-1" d="m317.57,111.95c3.56-5.44,7.11-14.33,20.67-6.33s-.56,15.44-1.44,14.11,2.67-12.44-8-5.89c-8,6.78-6.56,18.67-6.56,18.67,0,0,3.78-6.78,12.44-5.11s4.67,11.56,1.67,14.33c0,0-.89-.67-1.33-5s-4.73-5.22-10.2,2.56c0,0,.87,4.78-1.8,5.78,0,0,13.67-.56,13.44,4.22s2,6.33-7.44,6.67c0,0,6.85-3.11,1.82-6.56,0,0-5.15-1.67-3.37,6.56,0,0-.44,6.56,8.22,20.67,0,0,5.56,14.78-9.33,19.56,0,0-5.11.56-7,0,0,0,10.78-3.11,10.56-12.44,0,0,2.22-3.89-9.22-27.33,0,0-8.89-25-3.11-44.44Z"/>
      <path class="cls-1" d="m126.01,97.74s-46.44-44.76-55.77-44.85l-6.44,4.4,17.23,11.95-8.89,2.27-15.56-9.11-6,5,13.29,9.14-8.96,3.75-11.92-6.73-3.62,3.98,5.77,6.53-3.35,2.42-8.91-4.34-3.74,4.03,8.01,4.66s-13.23,7.45-13.45,10.11,7.33,8.22,6.56,14.89c-.78,6.67,1.89,16.06.67,41.06,0,0-.47,22.14,5.11,28.06s8.88,11.9,8.88,11.9c0,0-12.58-1.92-18.5-6.17,0,0-5.25-4.5-6.5-4.08s-7.75,3.5,14.75,15.75c0,0,2.42,4.48,5.1,4.71,7.58.67,11.75,5.75,1,4.67l-11.5-1.83,1.58,7.5,13.13,2.46s10.87,11.08,18.04,10.25c0,0,36.19-7.01,43.81,2.54,0,0-9.85.17-12.43.04-2.67-.94-12.28-3-15.83,1.33-2.72,5.56,7.04,8.04,7.04,8.04,0,0,.22-5.44,1.08-6.17s6.58-1.83,8.03,6.75c11.76,1.54-8.06-11.28,15.37-5.35l2.85-7.9s-3.42-13.96-49.33-5.96c0,0-5.07-1.96-4.29-5.29.78-3.33,6.25-1.25,6.25-1.25,0,0,1.67-2-.29-3.54,0,0-4.54.31-7.88-1.92,0,0,5.35-2.57,11.46-4.46l-.17-3.75s-10.75,2.03-13.71-1.35c0,0-4.71-12.37-16.04-28.81,0,0-.83-17.5,1.63-50.1,0,0,4.44-16.47,2.67-19.36,0,0-3.52-10.1,7.6-10.32,0,0,20.27-13.8,50.78-13.22l11,9.67s3.44,3.67-1,4.56l-17.26.45s-.67-4.44,6.89-5.78l8.44,4.67-9.52-9.56s-3.78.11-7.33,2.33c0,0-4.7,1.43-9.56,11.88l43.77-.53Z"/>
      <path class="cls-1" d="m71.24,89.72s-21.52,5.83-23.43,10.17-.94,19.95-.94,19.95l-2.46,13.88s6.4-9.25,7-14c.74-5.79,6.37-19.46,13.33-21.58,4.63-1.41,6.5-8.42,6.5-8.42Z"/>
      <path class="cls-1" d="m54.63,129.19s-5.73,5.98-6.95,10.42-4.44,18.11-4.44,18.11l9.17-13.83,2.23-14.7Z"/>
      <path class="cls-1" d="m27.91,122.83c-3.56-5.44-8-15.33-21.56-7.33s-1.33,17.56-.44,16.22-1.33-13.33,9.34-6.78c6.44,7.33,8,18.44,8,18.44,0,0-3.78-6.78-12.44-5.11s-6.33,12.11-3.33,14.89c0,0,2.56-1.22,3-5.56s4.73-5.22,10.2,2.56c0,0-1.98,4.76.69,5.76,0,0-12.56-.54-12.33,4.24s-1.56,7.11,7.89,7.44c0,0-7.3-3.89-2.26-7.33,0,0,5.15-1.67,3.37,6.56,0,0-5.22,18-6.22,20.78s-2.8,14.25,7.33,19.44c0,0,8.22.8,10.11.25,2.83-1.06-13.76-4.69-13.67-12.69,0,0-2.22-3.89,9.22-27.33,0,0,8.89-25,3.11-44.44Z"/>
      <path class="cls-1" d="m174.68,217.95s1.78-12.22,10.11-10.44c3.08,1.86-1.44,4.44-1.44,4.44,0,0-5.78,3.33-5.89,9-1,5.33-1.11,5.78-.33,18.22l5.89,5.33-7.44,6.56-7.78-6.33,5.11-4.56s1-17.44-2.44-21.44-8.33-8.67-8.33-8.67c0,0-1.56-3.46,3.78-2.73,4.22,1.18,8.78,10.62,8.78,10.62Z"/>
      <path class="cls-1" d="m178.35,225.39s1.33-9.11,12.89-10.56c9.56-.2,3.89,6.33-.67,5.28-4.2,1.61-8.33,8.5-8.33,8.5,0,0-3.67,5.22-3.89,3.44s0-6.67,0-6.67Z"/>
      <path class="cls-1" d="m170.91,231.5s1.89-14.44-12.33-16c0,0-8.11.67-4,5.44,0,0,5.44,1.22,6.67.56l9.67,10Z"/>
      <path class="cls-1" d="m179.68,234.28c.22-.25,10.33-14.78,28.22-12.22,0,0,3.56.22-2.67-6.11,0,0,3.11-3.33,9.22-3.67,0,0,5.78,3.56,7.89,11l1.22-.67v-7.11s.67-5.33,6.67-6.56c0,0,9.33-2.11,7.78,2.89l-5.67,5.89,1.11.56s18.78-11.56,30-11.67c0,0,9.56-1.33,13.22,3.22,0,0-16.67-2.33-36.44,9.67l-15.44,17s-3.78-9.44-19.78-6.89l-7.44.22-1.13-2.11s-11.87,8.78-15.21,12.89c-1.36,1.04-4.26-3.37-1.56-6.33Z"/>
      <path class="cls-1" d="m125.13,214.83l2.33,11.67,6.44-11,10.89,2.22-5.22,5.78s10.44-2.33,17.33,2c0,0,10.67,4,12.78,9.22s0,4.78,0,4.78c0,0-9.22-9.11-26.11-8.56-14,1.48-17.56,8.56-17.56,8.56,0,0-4.44-9.34-15.77-14.45,0,0-12.11-7.33-17-7.78,0,0-11.4-1.89-21.2.78,0,0-2.76-.44,0-2.56,0,0,23.2-8.56,43.31,8,0,0,5.11,1,.56-3.22l-5.11-4.78s-.44-2.05,3.33-2.21,8.56-.91,11,1.54Z"/>
    </g>
  </g>
</svg>